TITLE ""
FILE "Disc1Track52.mp3" MP3
  TRACK 01 AUDIO
    TITLE "Disc1Track52_01"
    INDEX 01 00:00:00
  TRACK 02 AUDIO
    TITLE "Disc1Track52_02"
    INDEX 01 00:01:18
  TRACK 03 AUDIO
    TITLE "Disc1Track52_03"
    INDEX 01 00:03:44
  TRACK 04 AUDIO
    TITLE "Disc1Track52_04"
    INDEX 01 00:04:75
  TRACK 05 AUDIO
    TITLE "Disc1Track52_05"
    INDEX 01 00:08:73
  TRACK 06 AUDIO
    TITLE "Disc1Track52_06"
    INDEX 01 00:09:29
  TRACK 07 AUDIO
    TITLE "Disc1Track52_07"
    INDEX 01 00:10:66
  TRACK 08 AUDIO
    TITLE "Disc1Track52_08"
    INDEX 01 00:13:27
  TRACK 09 AUDIO
    TITLE "Disc1Track52_09"
    INDEX 01 00:14:65
  TRACK 10 AUDIO
    TITLE "Disc1Track52_10"
    INDEX 01 00:18:14
  TRACK 11 AUDIO
    TITLE "Disc1Track52_11"
    INDEX 01 00:18:45
  TRACK 12 AUDIO
    TITLE "Disc1Track52_12"
    INDEX 01 00:19:72
  TRACK 13 AUDIO
    TITLE "Disc1Track52_13"
    INDEX 01 00:21:44
  TRACK 14 AUDIO
    TITLE "Disc1Track52_14"
    INDEX 01 00:22:69
  TRACK 15 AUDIO
    TITLE "Disc1Track52_15"
    INDEX 01 00:25:53
  TRACK 16 AUDIO
    TITLE "Disc1Track52_16"
    INDEX 01 00:26:10
  TRACK 17 AUDIO
    TITLE "Disc1Track52_17"
    INDEX 01 00:27:40
  TRACK 18 AUDIO
    TITLE "Disc1Track52_18"
    INDEX 01 00:28:63
  TRACK 19 AUDIO
    TITLE "Disc1Track52_19"
    INDEX 01 00:30:17
  TRACK 20 AUDIO
    TITLE "Disc1Track52_20"
    INDEX 01 00:32:32
  TRACK 21 AUDIO
    TITLE "Disc1Track52_21"
    INDEX 01 00:32:63
  TRACK 22 AUDIO
    TITLE "Disc1Track52_22"
    INDEX 01 00:34:25
  TRACK 23 AUDIO
    TITLE "Disc1Track52_23"
    INDEX 01 00:36:34
  TRACK 24 AUDIO
    TITLE "Disc1Track52_24"
    INDEX 01 00:37:68
  TRACK 25 AUDIO
    TITLE "Disc1Track52_25"
    INDEX 01 00:42:75
  TRACK 26 AUDIO
    TITLE "Disc1Track52_26"
    INDEX 01 00:43:32
  TRACK 27 AUDIO
    TITLE "Disc1Track52_27"
    INDEX 01 00:44:55
  TRACK 28 AUDIO
    TITLE "Disc1Track52_28"
    INDEX 01 00:46:73
  TRACK 29 AUDIO
    TITLE "Disc1Track52_29"
    INDEX 01 00:48:19
  TRACK 30 AUDIO
    TITLE "Disc1Track52_30"
    INDEX 01 00:53:28
  TRACK 31 AUDIO
    TITLE "Disc1Track52_31"
    INDEX 01 00:53:59
  TRACK 32 AUDIO
    TITLE "Disc1Track52_32"
    INDEX 01 00:55:03
  TRACK 33 AUDIO
    TITLE "Disc1Track52_33"
    INDEX 01 00:57:12
  TRACK 34 AUDIO
    TITLE "Disc1Track52_34"
    INDEX 01 00:58:31
  TRACK 35 AUDIO
    TITLE "Disc1Track52_35"
    INDEX 01 01:05:08
  TRACK 36 AUDIO
    TITLE "Disc1Track52_36"
    INDEX 01 01:05:41
  TRACK 37 AUDIO
    TITLE "Disc1Track52_37"
    INDEX 01 01:07:40
  TRACK 38 AUDIO
    TITLE "Disc1Track52_38"
    INDEX 01 01:10:31
  TRACK 39 AUDIO
    TITLE "Disc1Track52_39"
    INDEX 01 01:12:29
  TRACK 40 AUDIO
    TITLE "Disc1Track52_40"
    INDEX 01 01:17:34
